<svg width="417" height="92" viewBox="0 0 417 92" fill="none" xmlns="http://www.w3.org/2000/svg">
<path d="M92.0433 46C92.0433 71.4071 71.4407 92 46.0216 92C20.6026 92 0 71.4017 0 46C0 20.5929 20.6026 0 46.0216 0C71.4407 0 92.0433 20.5929 92.0433 46ZM122.647 39.0113H129.996C134.033 39.0113 137.204 36.2255 137.204 32.4661C137.204 29.7507 135.884 26.9325 131.982 26.2023C134.212 25.3638 135.673 23.2056 135.673 20.6308C135.673 17.25 132.891 14.6428 129.2 14.6428H122.652V39.0113H122.647ZM125.364 17.2879H128.394C131.078 17.2879 132.924 18.6131 132.924 21.15C132.924 23.4814 131.463 25.0122 129.06 25.0122H125.369V17.2879H125.364ZM125.364 36.3554V27.6573H129.125C132.155 27.6573 134.488 29.5073 134.488 32.0442C134.488 34.8949 132.085 36.3608 129.125 36.3608H125.364V36.3554ZM149.316 24.9798L144.824 25.0176V14.6428H142.108V39.0113H149.316C153.635 39.0113 156.66 36.0524 156.66 32.0172C156.66 28.0035 153.629 24.9419 149.316 24.9798ZM153.943 32.0496C153.943 34.9003 151.887 36.3662 148.926 36.3662H144.819V27.6573H148.926C151.962 27.6573 153.943 29.5019 153.943 32.0496ZM162.58 39.0059V14.6428H159.864V39.0113H162.58V39.0059ZM180.472 39.5252C184.758 39.5252 188.551 37.3993 190.851 34.1322L188.692 32.6014C186.917 35.1762 183.957 36.8855 180.472 36.8855C174.795 36.8855 170.514 32.3958 170.514 26.8243C170.514 21.2528 174.8 16.7632 180.472 16.7632C183.957 16.7632 186.917 18.4725 188.692 21.0473L190.851 19.5165C188.557 16.2439 184.758 14.1181 180.472 14.1181C173.436 14.1181 167.759 19.7923 167.759 26.8243C167.759 33.8509 173.436 39.5252 180.472 39.5252ZM195.641 14.6428V39.0113H224.54V14.6428H221.823V36.3662H211.443V14.6428H208.726V36.3662H198.347V14.6428H195.641ZM231.954 39.0059L234.811 31.9739H244.282L247.172 39.0059H250.202L240.001 14.6373H239.13L228.928 39.0059H231.954ZM239.546 20.3873L243.167 29.2585H235.92L239.546 20.3873ZM267.725 29.7453V39.0059H270.442V14.6428H263.445C259.094 14.6428 255.646 18.0181 255.646 22.2319C255.646 25.8831 258.363 28.8095 261.875 29.3667C259.96 30.0969 258.255 36.4311 254.878 36.4311C254.596 36.4311 254.283 36.3986 253.969 36.2905V39.0059C254.488 39.179 254.943 39.2114 255.397 39.2114C261.107 39.2114 262.644 30.719 264.906 29.7453H267.725V29.7453ZM263.683 27.1002C260.723 27.1002 258.32 25.088 258.32 22.2265C258.32 19.365 260.723 17.2825 263.683 17.2825H267.725V27.1002H263.683ZM286.115 14.6428V39.0113H315.013V14.6428H312.297V36.3662H301.922V14.6428H299.206V36.3662H288.826V14.6428H286.115ZM323.954 39.0059V27.6573H326.356C329.387 27.6573 332.104 39.2114 338.338 39.2114C338.858 39.2114 339.383 39.1411 339.87 39.0059V36.2959C339.556 36.3662 339.242 36.4365 338.933 36.4365C334.306 36.4365 331.904 26.7594 328.732 26.305L338.933 14.6428H335.659L326.54 25.0176H323.964V14.6428H321.28V39.0113H323.954V39.0059ZM341.975 26.8243C341.975 33.8563 347.403 39.5306 354.444 39.5306C361.441 39.5306 366.912 33.8563 366.912 26.8243C366.912 19.7923 361.446 14.1181 354.444 14.1181C347.414 14.1181 341.975 19.7923 341.975 26.8243ZM344.729 26.8243C344.729 21.2528 348.772 16.7632 354.444 16.7632C360.12 16.7632 364.158 21.2528 364.158 26.8243C364.158 32.3958 360.115 36.8855 354.444 36.8855C348.772 36.8801 344.729 32.3904 344.729 26.8243ZM368.952 36.2905V39.0113C369.651 39.1141 369.964 39.2168 370.592 39.2168C375.398 39.2168 378.217 35.0734 378.217 17.1851H388.002V39.0113H390.686V14.6428H375.641C375.641 32.2876 373.623 36.5339 370.067 36.5339C369.575 36.5339 369.472 36.3932 368.952 36.2905ZM398.057 39.0059L400.914 31.9739H410.385L413.275 39.0059H416.305L406.104 14.6373H405.233L395.032 39.0059H398.057ZM405.65 20.3873L409.27 29.2585H402.024L405.65 20.3873ZM121.83 71.7154C124.124 74.988 127.923 77.1138 132.209 77.1138C139.245 77.1138 144.922 71.4396 144.922 64.4076C144.922 57.3756 139.245 51.6959 132.209 51.6959C127.923 51.6959 124.13 53.8217 121.83 57.0943L123.989 58.6251C125.764 56.0503 128.724 54.341 132.209 54.341C137.259 54.341 141.193 57.8949 142.032 62.5901H129.596V65.2352H142.129C141.712 70.4172 137.6 74.4579 132.204 74.4579C128.719 74.4579 125.759 72.754 123.984 70.1738L121.83 71.7154ZM152.715 76.5783V65.2298H155.117C158.148 65.2298 160.865 76.7839 167.099 76.7839C167.619 76.7839 168.144 76.7136 168.631 76.5783V73.8629C168.317 73.9332 168.003 74.0035 167.694 74.0035C163.067 74.0035 160.664 64.3264 157.493 63.8721L167.694 52.2098H164.42L155.301 62.5847H152.725V52.2152H150.041V76.5783H152.715ZM170.736 64.3968C170.736 71.4233 176.164 77.103 183.199 77.103C190.196 77.103 195.668 71.4287 195.668 64.3968C195.668 57.3648 190.202 51.6905 183.199 51.6905C176.169 51.6959 170.736 57.3702 170.736 64.3968ZM173.485 64.3968C173.485 58.8253 177.528 54.3356 183.199 54.3356C188.876 54.3356 192.913 58.8253 192.913 64.3968C192.913 69.9683 188.871 74.4579 183.199 74.4579C177.528 74.4579 173.485 69.9683 173.485 64.3968ZM203.585 52.2152H200.868V76.5783H203.585V65.2298H218.489V76.5783H221.206V52.2152H218.489V62.5901H203.585V52.2152ZM226.38 64.3968C226.38 71.4287 231.813 77.103 238.848 77.103C245.846 77.103 251.317 71.4287 251.317 64.3968C251.317 57.3648 245.851 51.6905 238.848 51.6905C231.818 51.6959 226.38 57.3702 226.38 64.3968ZM229.134 64.3968C229.134 58.8253 233.177 54.3356 238.848 54.3356C244.525 54.3356 248.562 58.8253 248.562 64.3968C248.562 69.9683 244.525 74.4579 238.848 74.4579C233.177 74.4579 229.134 69.9683 229.134 64.3968ZM255.511 76.5783H258.266L259.727 60.183L267.877 76.5783H269.03L277.18 60.183L278.641 76.5783H281.396L279.198 52.2152H278.084L268.407 71.6343L258.828 52.2152H257.714L255.511 76.5783ZM289.562 52.2206H286.845V76.5837H289.562L303.421 56.9537V76.5837H306.138V52.2206H303.421L289.562 71.8831V52.2206ZM315.04 76.5783V65.2298H317.443C320.474 65.2298 323.191 76.7839 329.425 76.7839C329.944 76.7839 330.469 76.7136 330.956 76.5783V73.8629C330.643 73.9332 330.329 74.0035 330.02 74.0035C325.393 74.0035 322.99 64.3264 319.819 63.8721L330.02 52.2098H326.746L317.627 62.5847H315.051V52.2152H312.367V76.5783H315.04ZM337.943 52.2206H335.226V76.5837H337.943L351.803 56.9537V76.5837H354.519V52.2206H351.803L337.943 71.8831V52.2206Z" fill="#595959"/>
<path d="M54.3935 41.8401C57.1535 40.6068 58.8528 38.8488 60.0326 37.437C62.7277 34.3483 63.2905 30.8486 63.2905 28.4523C63.2905 26.3751 62.798 21.1553 58.2359 17.5852C55.2973 15.3187 52.6401 14.1665 46.2975 14.1665H43.1371C43.0343 14.1611 42.9423 14.1611 42.8178 14.1611H29.5752V76.1292H67.2032V64.1207C67.2032 52.1988 63.1335 45.1073 54.3935 41.8401ZM58.3928 72.3589H52.0448V51.7985H43.9218V72.386H38.3477V17.596L44.2627 17.6014C47.7479 17.6014 50.4592 18.7698 52.3154 21.0795C53.4681 22.4697 54.2691 24.3629 54.5775 26.4184H43.9164V29.8208H54.6912C54.5938 31.6059 54.215 33.7209 52.3317 36.009C51.1357 37.5073 48.4731 40.0172 44.0895 40.0172H43.8352V43.4629H44.0192C53.8199 43.4629 58.3874 49.6618 58.3874 62.9685V72.3589H58.3928Z" fill="#E7E7E7"/>
</svg>
